<svg xmlns="http://www.w3.org/2000/svg" version="1.0" preserveAspectRatio="xMidYMid meet" viewBox="47.56 1 2005.15 3261"><g transform="translate(0.000000,3264.000000) scale(0.100000,-0.100000)" fill="#000000" stroke="none"><path d="M10392 32556 c-42 -41 -99 -94 -127 -118 -27 -25 -108 -102 -180 -173 -71 -70 -155 -143 -185 -163 -65 -41 -227 -193 -381 -355 -46 -49 -100 -98 -119 -110 -42 -26 -49 -31 -130 -105 -36 -32 -81 -69 -100 -83 -34 -23 -57 -44 -111 -105 -34 -37 -94 -92 -139 -126 -19 -15 -57 -47 -83 -72 -26 -24 -77 -58 -113 -76 -35 -17 -64 -35 -64 -39 0 -5 -24 -25 -52 -44 -29 -20 -73 -56 -98 -81 -24 -25 -49 -46 -54 -46 -5 0 -21 -11 -35 -24 -44 -41 -339 -243 -417 -285 -48 -26 -129 -83 -169 -120 -16 -15 -50 -40 -75 -56 -25 -16 -63 -43 -85 -60 -42 -32 -169 -112 -295 -185 -41 -24 -84 -51 -95 -61 -11 -10 -33 -21 -50 -25 -16 -4 -47 -18 -68 -31 -21 -13 -49 -28 -63 -33 -14 -6 -44 -23 -67 -38 -23 -16 -80 -48 -127 -71 -47 -24 -98 -53 -115 -66 -16 -12 -41 -26 -55 -30 -14 -4 -41 -20 -60 -36 -19 -15 -47 -31 -62 -34 -15 -4 -32 -13 -39 -21 -6 -8 -15 -14 -20 -14 -11 0 -285 -134 -302 -148 -7 -5 -25 -12 -42 -16 -16 -4 -97 -41 -179 -82 -82 -41 -155 -74 -161 -74 -6 0 -92 -40 -190 -90 -98 -49 -185 -90 -193 -90 -8 0 -35 -11 -61 -24 -60 -32 -210 -96 -223 -96 -5 0 -22 -8 -36 -18 -27 -18 -127 -52 -153 -52 -8 0 -52 -18 -98 -40 -45 -22 -87 -40 -92 -40 -14 0 -138 -61 -144 -70 -3 -5 -31 -22 -63 -38 -31 -16 -88 -46 -127 -65 -38 -20 -73 -37 -77 -37 -4 0 -46 -23 -92 -50 -47 -28 -93 -53 -103 -57 -10 -4 -36 -21 -58 -38 -22 -17 -62 -42 -90 -55 -27 -13 -57 -27 -65 -32 -8 -5 -32 -17 -54 -27 -21 -10 -54 -31 -75 -45 -20 -15 -67 -47 -106 -72 -38 -26 -86 -61 -105 -79 -19 -18 -60 -51 -90 -74 -70 -51 -197 -145 -260 -193 -27 -21 -55 -38 -62 -38 -7 0 -65 -52 -128 -116 -63 -63 -135 -129 -160 -146 -39 -27 -94 -79 -291 -273 -62 -62 -102 -106 -135 -150 -16 -22 -49 -60 -74 -85 -25 -25 -57 -63 -72 -84 -14 -21 -70 -84 -123 -140 -134 -140 -132 -138 -140 -166 -9 -31 -68 -120 -95 -145 -11 -10 -20 -22 -20 -26 0 -13 -67 -105 -151 -209 -46 -57 -101 -136 -121 -175 -8 -16 -36 -64 -62 -106 -25 -42 -46 -87 -46 -101 0 -14 -9 -33 -20 -43 -11 -10 -20 -23 -20 -30 0 -6 -25 -49 -56 -95 -31 -47 -74 -121 -96 -165 -21 -44 -44 -89 -50 -100 -7 -11 -36 -68 -65 -127 -29 -60 -58 -108 -63 -108 -6 0 -10 -10 -10 -22 0 -13 -7 -34 -14 -48 -50 -88 -108 -237 -131 -336 -8 -37 -24 -78 -34 -93 -10 -14 -37 -80 -60 -147 -23 -66 -50 -138 -61 -159 -11 -22 -20 -49 -20 -60 0 -12 -4 -25 -9 -30 -5 -6 -16 -35 -24 -65 -9 -30 -27 -86 -42 -125 -15 -38 -30 -90 -35 -115 -4 -25 -15 -61 -23 -80 -8 -19 -29 -91 -46 -160 -17 -69 -35 -145 -42 -170 -6 -25 -15 -58 -21 -75 -6 -16 -16 -64 -24 -105 -7 -41 -22 -112 -33 -158 -10 -46 -19 -115 -20 -153 0 -39 -3 -75 -7 -81 -4 -5 -11 -42 -16 -82 -5 -39 -14 -98 -19 -131 -5 -33 -14 -96 -19 -140 -5 -44 -14 -114 -20 -155 -20 -132 -43 -460 -58 -850 -5 -118 -7 -2883 -5 -6145 6 -7404 5 -11427 0 -13782 -3 -1276 -1 -1835 6 -1842 13 -13 20015 -15 20035 -3 10 7 11 153 7 718 -3 390 -9 5369 -15 11064 -5 6263 -13 10444 -19 10580 -5 124 -14 259 -19 300 -6 41 -15 109 -20 151 -5 43 -13 82 -17 88 -4 7 -11 44 -16 84 -20 162 -36 257 -46 269 -6 7 -14 45 -18 83 -3 39 -12 86 -19 105 -8 19 -19 64 -24 100 -6 36 -23 106 -37 155 -15 50 -32 119 -39 155 -7 36 -16 72 -20 79 -5 7 -14 38 -21 69 -7 32 -17 71 -23 87 -6 17 -22 64 -36 105 -40 120 -58 172 -76 220 -43 111 -83 239 -89 285 -4 28 -14 64 -23 80 -8 17 -26 57 -38 90 -13 33 -31 79 -41 102 -11 23 -19 46 -19 52 0 15 -61 141 -71 147 -5 3 -9 14 -9 25 0 23 -37 99 -79 161 -16 24 -33 57 -37 73 -4 17 -16 44 -26 60 -10 17 -18 36 -18 43 0 7 -17 39 -38 72 -21 32 -56 94 -76 137 -21 43 -45 92 -53 108 -69 137 -61 123 -169 290 -21 33 -50 80 -63 105 -13 25 -65 97 -115 160 -87 109 -156 210 -156 229 0 4 -12 24 -27 44 -16 20 -44 58 -63 84 -19 26 -74 89 -122 140 -49 50 -88 95 -88 100 0 5 -33 44 -72 86 -84 89 -135 148 -168 196 -25 36 -105 114 -124 120 -6 2 -74 65 -151 140 -78 75 -156 150 -175 166 -19 17 -53 51 -76 75 -57 62 -121 114 -152 122 -14 4 -39 20 -56 36 -17 16 -78 64 -136 107 -58 43 -123 95 -145 115 -54 51 -404 280 -427 280 -21 0 -48 16 -123 72 -27 21 -57 38 -66 38 -9 0 -28 10 -43 21 -15 12 -102 60 -194 106 -92 47 -172 89 -177 94 -21 16 -226 119 -239 119 -7 0 -33 11 -58 24 -24 13 -68 29 -97 35 -29 6 -85 27 -125 45 -39 19 -97 44 -128 56 -32 12 -60 26 -63 31 -4 5 -14 9 -24 9 -9 0 -48 16 -87 35 -38 19 -74 35 -81 35 -6 0 -100 45 -210 99 -109 54 -218 108 -243 119 -25 11 -79 35 -120 54 -41 19 -88 38 -104 42 -17 4 -42 16 -57 27 -15 10 -30 19 -34 19 -12 0 -195 92 -201 101 -3 5 -13 9 -23 9 -10 0 -29 8 -42 19 -13 10 -35 22 -49 26 -14 4 -43 21 -64 38 -22 17 -87 55 -145 85 -58 29 -120 65 -138 78 -17 13 -38 24 -46 24 -8 0 -25 8 -38 18 -13 10 -35 23 -49 30 -14 7 -43 24 -65 37 -22 14 -50 25 -62 25 -12 0 -34 10 -50 23 -15 12 -37 28 -48 34 -11 7 -73 45 -138 85 -66 40 -134 81 -154 91 -37 19 -118 74 -168 114 -54 43 -219 149 -275 176 -68 34 -204 129 -254 180 -21 20 -41 37 -46 37 -4 0 -42 26 -83 58 -42 31 -103 77 -137 102 -33 25 -80 60 -103 77 -23 18 -53 38 -67 44 -14 5 -45 30 -70 54 -25 24 -67 62 -95 84 -78 62 -178 149 -268 232 -45 42 -90 80 -99 85 -9 5 -45 37 -80 70 -35 34 -83 78 -108 99 -25 20 -85 74 -135 120 -49 47 -125 117 -168 157 -44 40 -85 85 -93 99 -7 15 -35 37 -61 50 -27 13 -84 59 -128 102 -44 43 -96 91 -115 105 -19 15 -100 91 -179 170 -79 78 -150 142 -158 142 -8 0 -49 -33 -91 -74z m147 -1246 c25 -17 57 -47 71 -67 40 -56 109 -122 154 -145 42 -21 242 -205 391 -358 79 -80 182 -170 197 -170 9 0 40 -20 68 -45 28 -25 54 -45 59 -45 9 0 135 -103 179 -147 45 -45 144 -128 177 -148 17 -10 35 -24 40 -29 21 -23 112 -83 160 -106 57 -27 87 -47 153 -106 44 -39 94 -74 166 -118 17 -10 45 -30 62 -45 17 -14 49 -37 73 -51 85 -51 210 -136 245 -167 19 -18 53 -37 75 -42 36 -8 87 -37 119 -68 7 -7 19 -13 25 -13 7 0 38 -18 71 -40 32 -22 63 -40 67 -40 5 0 32 -16 59 -35 27 -19 52 -35 54 -35 3 0 44 -26 93 -58 48 -33 114 -71 146 -87 32 -15 74 -40 95 -54 37 -27 151 -81 169 -81 6 0 29 -13 51 -30 23 -16 44 -30 47 -30 11 0 447 -220 474 -239 48 -33 376 -189 446 -212 39 -13 77 -28 85 -34 21 -16 104 -55 117 -55 7 0 52 -20 102 -45 50 -25 95 -45 100 -45 15 0 200 -91 207 -101 3 -5 13 -9 22 -9 9 0 29 -6 44 -14 14 -8 43 -19 63 -26 20 -7 49 -18 63 -26 15 -8 33 -14 40 -14 8 0 26 -6 40 -14 58 -31 128 -64 151 -71 13 -4 45 -20 70 -36 25 -17 80 -41 121 -54 101 -32 336 -156 406 -214 18 -14 55 -39 83 -56 47 -27 122 -75 191 -122 108 -73 190 -123 202 -123 9 0 22 -7 29 -16 17 -20 144 -124 182 -148 16 -9 36 -25 45 -34 10 -9 44 -39 77 -67 32 -27 70 -61 84 -74 14 -13 44 -36 66 -51 22 -16 47 -39 55 -51 8 -13 31 -37 50 -54 105 -91 417 -409 452 -460 22 -33 70 -92 107 -131 36 -39 84 -96 106 -127 44 -63 113 -155 133 -177 7 -8 26 -36 43 -62 17 -26 52 -71 79 -100 26 -28 58 -77 71 -107 12 -31 30 -68 41 -83 10 -14 18 -30 18 -35 0 -6 9 -18 20 -28 11 -10 20 -23 20 -29 1 -6 16 -36 35 -66 18 -30 46 -79 62 -109 15 -30 38 -65 50 -77 21 -21 243 -455 243 -474 0 -5 14 -33 31 -62 17 -29 34 -71 37 -93 2 -22 13 -57 23 -77 11 -21 19 -45 19 -55 0 -10 9 -31 20 -48 11 -16 20 -37 20 -45 0 -8 6 -27 14 -42 8 -14 19 -43 26 -65 14 -46 21 -64 49 -126 11 -26 25 -64 30 -85 5 -20 17 -59 26 -87 10 -27 23 -66 30 -85 7 -19 20 -57 29 -85 10 -27 22 -70 27 -95 5 -25 16 -61 24 -80 8 -19 19 -53 24 -75 5 -22 23 -94 40 -160 17 -66 31 -130 31 -141 0 -12 8 -39 17 -60 9 -22 20 -63 25 -91 4 -29 13 -79 19 -110 5 -32 14 -112 19 -178 11 -151 37 -345 56 -410 8 -30 16 -130 20 -255 5 -142 11 -213 20 -232 12 -23 14 -1678 14 -10544 0 -9773 -1 -10519 -17 -10536 -16 -17 -312 -18 -9073 -18 -7229 0 -9060 3 -9073 13 -16 11 -17 528 -12 8527 2 4683 8 9512 12 10730 8 2082 9 2217 25 2247 12 22 18 54 18 99 0 72 13 158 35 238 8 27 12 52 10 56 -2 3 3 42 10 86 8 43 18 99 21 124 3 25 12 61 19 80 7 19 16 64 20 100 4 36 14 77 21 92 8 15 14 55 14 90 1 35 5 81 9 103 14 63 58 227 69 255 11 30 72 224 102 330 24 82 68 199 80 215 5 6 20 44 33 85 14 41 32 89 40 105 8 17 20 46 27 65 28 81 43 119 75 185 18 39 43 99 56 135 12 36 29 74 36 85 7 11 18 37 24 58 5 21 31 73 56 115 25 42 59 103 77 135 43 82 56 104 99 170 20 31 37 60 37 64 0 3 6 14 14 22 7 9 24 36 37 61 13 25 30 53 37 62 15 18 29 43 81 140 18 34 49 83 69 107 38 46 73 94 162 217 30 42 74 97 97 123 24 25 43 50 43 55 0 5 30 42 68 81 88 95 122 135 122 147 0 11 324 334 430 430 41 37 98 88 126 115 87 82 234 201 293 238 9 6 32 24 53 40 48 40 84 65 133 93 22 13 47 30 55 38 17 17 149 104 157 104 3 0 42 24 86 54 45 29 103 66 130 81 26 15 47 30 47 34 0 4 30 22 68 41 37 18 84 44 105 57 71 45 102 59 182 87 44 15 89 32 100 38 85 46 195 98 220 104 17 4 37 12 45 20 8 7 29 16 45 20 17 4 55 19 85 34 30 15 66 31 80 35 14 4 36 16 49 26 13 11 32 19 42 19 9 0 47 16 83 35 37 19 71 35 76 35 5 0 46 18 92 40 46 22 88 40 93 40 10 0 97 43 155 76 14 7 35 14 48 14 20 0 230 93 272 121 8 5 23 12 34 16 10 3 39 17 65 30 25 14 100 53 166 87 66 34 136 72 155 83 46 29 250 136 320 169 129 60 169 81 248 126 46 27 94 51 106 54 12 3 35 17 51 32 33 30 108 82 117 82 4 0 22 14 40 31 18 17 49 38 68 46 19 8 63 37 96 63 58 45 139 90 164 90 6 0 23 8 38 19 15 10 52 34 82 53 132 84 231 152 310 213 47 36 90 65 96 65 6 0 21 12 35 26 21 23 46 42 120 89 9 5 38 25 65 42 27 18 56 33 64 33 8 0 43 26 77 58 71 65 124 109 162 134 51 33 199 149 242 187 18 17 37 31 41 31 5 0 35 24 67 53 33 28 87 75 121 102 34 28 99 85 143 127 45 42 100 90 122 106 45 32 165 158 165 172 0 5 18 19 40 30 22 11 81 59 130 105 49 47 93 85 97 85 4 0 29 20 55 45 27 25 53 45 59 45 6 0 32 -14 58 -30z"></path><path d="M10431 28916 c-23 -24 -55 -50 -69 -57 -15 -8 -52 -37 -81 -66 -30 -29 -59 -53 -63 -53 -4 0 -47 -39 -95 -86 -49 -48 -104 -97 -123 -109 -19 -12 -46 -34 -59 -49 -14 -14 -32 -26 -41 -26 -8 0 -46 -24 -84 -52 -37 -29 -76 -57 -85 -63 -9 -5 -35 -27 -58 -47 -24 -21 -49 -38 -56 -38 -7 0 -27 -16 -43 -35 -16 -20 -45 -46 -64 -57 -19 -12 -48 -32 -65 -45 -16 -13 -34 -27 -40 -31 -63 -48 -265 -172 -281 -172 -11 0 -33 -14 -50 -31 -30 -32 -109 -89 -123 -89 -4 0 -16 -9 -26 -20 -10 -11 -24 -20 -30 -20 -7 0 -19 -7 -26 -16 -7 -9 -22 -20 -34 -25 -24 -11 -44 -23 -109 -68 -27 -18 -63 -40 -80 -47 -33 -15 -116 -72 -142 -98 -8 -9 -20 -16 -25 -16 -5 0 -32 -16 -59 -35 -27 -19 -55 -35 -62 -35 -10 0 -39 -12 -118 -49 -14 -6 -37 -19 -52 -29 -51 -33 -118 -71 -140 -78 -12 -4 -34 -18 -49 -33 -14 -14 -57 -42 -95 -61 -38 -19 -103 -57 -145 -85 -113 -75 -112 -74 -139 -86 -14 -6 -32 -15 -40 -20 -8 -5 -35 -18 -60 -30 -25 -11 -61 -28 -80 -38 -19 -10 -53 -21 -74 -25 -21 -4 -50 -15 -63 -23 -54 -36 -137 -78 -233 -119 -36 -15 -77 -36 -92 -46 -14 -10 -28 -18 -31 -18 -3 0 -39 -16 -80 -35 -41 -19 -80 -35 -86 -35 -6 0 -35 -16 -65 -35 -30 -19 -60 -35 -66 -35 -6 0 -53 -20 -103 -45 -51 -25 -97 -45 -101 -45 -4 0 -36 -13 -70 -29 -33 -16 -109 -45 -167 -64 -59 -19 -115 -40 -125 -45 -40 -20 -111 -52 -118 -52 -9 0 -96 -38 -116 -50 -8 -5 -44 -24 -80 -42 -36 -18 -102 -56 -147 -85 -46 -29 -86 -53 -91 -53 -4 0 -30 -14 -58 -32 -27 -17 -62 -39 -79 -48 -55 -29 -80 -45 -90 -57 -5 -6 -30 -22 -55 -34 -25 -13 -92 -58 -150 -100 -58 -43 -125 -93 -150 -111 -25 -18 -75 -61 -112 -95 -37 -35 -72 -63 -77 -63 -15 0 -91 -81 -102 -107 -4 -12 -27 -34 -49 -48 -43 -27 -300 -282 -300 -298 0 -5 -26 -36 -59 -70 -32 -34 -61 -71 -65 -82 -3 -11 -31 -47 -61 -80 -30 -33 -55 -65 -55 -71 0 -6 -7 -17 -15 -24 -9 -7 -55 -70 -102 -139 -48 -69 -102 -147 -120 -173 -18 -26 -33 -52 -33 -58 0 -5 -14 -25 -30 -44 -29 -32 -120 -200 -120 -220 0 -5 -52 -114 -115 -242 -63 -127 -115 -238 -115 -246 0 -7 -9 -28 -20 -46 -11 -18 -20 -41 -20 -50 0 -10 -7 -27 -15 -38 -8 -10 -15 -25 -15 -32 0 -7 -9 -32 -20 -54 -11 -23 -20 -47 -20 -52 0 -6 -7 -24 -16 -41 -19 -36 -68 -182 -93 -280 -11 -39 -26 -88 -35 -109 -9 -21 -16 -64 -16 -95 0 -33 -8 -73 -19 -97 -10 -23 -22 -65 -26 -95 -4 -30 -11 -58 -15 -64 -7 -9 -12 -37 -27 -150 -3 -22 -9 -44 -13 -50 -4 -5 -11 -46 -15 -89 -4 -44 -13 -93 -20 -110 -8 -17 -19 -85 -25 -151 -6 -66 -19 -145 -28 -175 -16 -52 -17 -626 -17 -9575 l0 -9520 7560 0 7560 0 3 7335 c1 5115 -1 7351 -8 7386 -7 35 -12 732 -14 2155 -2 1225 -8 2137 -13 2184 -5 44 -14 91 -20 105 -6 14 -14 77 -18 140 -4 63 -10 120 -14 125 -4 6 -13 44 -20 85 -7 41 -19 98 -26 125 -8 28 -17 77 -21 110 -3 33 -13 75 -20 94 -8 18 -14 62 -14 98 0 42 -7 81 -20 111 -11 26 -24 67 -29 92 -14 71 -71 261 -92 308 -10 23 -19 50 -19 59 0 9 -6 24 -14 32 -16 17 -42 84 -57 143 -8 35 -19 61 -76 186 -14 30 -31 72 -38 93 -8 22 -30 64 -50 93 -19 29 -35 58 -35 64 0 5 -16 38 -35 72 -19 34 -35 72 -35 83 0 12 -20 64 -45 115 -25 51 -45 95 -45 98 0 3 -5 10 -10 17 -37 45 -89 116 -101 140 -26 50 -192 291 -266 383 -40 51 -73 97 -73 103 0 7 -19 33 -43 59 -24 26 -53 61 -65 77 -64 88 -495 518 -551 550 -17 10 -66 48 -140 110 -89 75 -140 115 -145 115 -4 0 -34 20 -68 45 -34 25 -66 45 -71 45 -5 0 -59 33 -121 73 -61 40 -131 83 -156 96 -25 13 -52 29 -60 36 -8 7 -37 23 -65 36 -27 14 -69 37 -91 51 -23 15 -57 34 -75 42 -19 9 -41 20 -49 25 -26 16 -125 61 -133 61 -5 0 -41 15 -80 34 -40 18 -94 38 -121 45 -27 6 -72 22 -100 35 -28 13 -62 27 -76 31 -14 4 -54 23 -90 41 -35 19 -70 34 -76 34 -12 0 -173 71 -204 90 -40 24 -132 70 -140 70 -10 0 -81 33 -125 57 -93 52 -371 183 -387 183 -21 0 -155 63 -213 100 -16 11 -63 36 -103 56 -40 20 -97 51 -125 70 -28 19 -56 34 -61 34 -5 0 -31 16 -57 35 -27 19 -55 35 -63 35 -7 0 -25 9 -39 20 -14 11 -31 20 -39 20 -7 0 -44 20 -83 45 -38 25 -73 45 -78 45 -5 0 -26 13 -46 29 -21 16 -50 33 -67 37 -16 4 -36 12 -44 19 -8 7 -42 27 -75 44 -33 17 -69 37 -80 43 -67 41 -104 65 -135 89 -19 14 -46 30 -60 34 -14 4 -46 26 -71 49 -25 23 -59 48 -75 56 -28 15 -89 52 -109 67 -5 5 -30 21 -55 37 -25 16 -57 37 -72 48 -15 10 -32 18 -39 18 -20 0 -132 72 -179 115 -25 22 -72 59 -105 82 -34 22 -67 48 -74 57 -7 9 -17 16 -22 16 -9 0 -66 38 -112 75 -70 55 -110 85 -117 85 -4 0 -29 22 -57 49 -27 27 -65 56 -84 65 -19 9 -52 32 -74 52 -22 20 -52 42 -67 50 -15 8 -31 20 -35 26 -4 7 -30 31 -58 53 -27 21 -59 48 -70 60 -12 11 -42 34 -68 52 -25 18 -59 50 -75 72 -28 39 -123 121 -140 121 -4 0 -27 -20 -51 -44z"></path></g></svg>
