<?xml version="1.0" standalone="no"?>
<!DOCTYPE svg PUBLIC "-//W3C//DTD SVG 20010904//EN"
"http://www.w3.org/TR/2001/REC-SVG-20010904/DTD/svg10.dtd">
<svg version="1.0" xmlns="http://www.w3.org/2000/svg"
 width="3264.000000pt" height="652.000000pt" viewBox="0 0 3264.000000 652.000000"
 preserveAspectRatio="xMidYMid meet">
<g transform="translate(0.000000,652.000000) scale(0.100000,-0.100000)"
fill="#000000" stroke="none">
<path fill="#f04323" d="M25903 6452 c-7 -5 -55 -208 -108 -463 -53 -250 -113 -536 -134 -637
-22 -101 -42 -186 -45 -189 -3 -4 -72 59 -153 138 -222 217 -413 356 -650 473
-316 157 -595 232 -898 243 -254 9 -438 -17 -689 -97 -238 -77 -474 -188 -706
-335 -381 -242 -684 -519 -1002 -917 -136 -170 -152 -193 -145 -212 13 -34
401 -652 414 -661 9 -5 35 -24 58 -41 23 -17 53 -39 67 -48 l25 -16 128 137
c71 76 134 141 141 145 7 5 156 -140 416 -405 l405 -412 -91 -132 c-50 -72
-110 -161 -132 -198 l-42 -66 71 -122 c87 -151 277 -451 289 -455 16 -7 133
-97 137 -106 2 -5 44 71 93 169 390 781 879 1278 1438 1463 126 42 210 59 358
71 130 12 172 8 172 -16 0 -7 -101 -492 -225 -1076 -282 -1330 -285 -1340
-291 -1346 -2 -3 -60 14 -127 36 -171 58 -297 77 -466 70 -233 -9 -491 -64
-850 -181 -571 -188 -650 -208 -826 -207 -311 0 -454 99 -606 416 -105 220
-157 432 -172 713 -3 57 -8 76 -25 90 -54 45 -62 51 -62 45 0 -3 -16 10 -35
30 l-34 35 -281 -199 -280 -200 6 -42 c52 -372 145 -636 312 -887 130 -194
431 -451 652 -556 266 -127 554 -154 888 -85 187 39 240 54 612 171 534 167
563 173 790 174 132 1 168 -2 245 -23 186 -49 264 -109 387 -297 49 -76 75
-105 137 -151 42 -31 83 -57 92 -57 17 0 509 351 509 364 0 4 -22 54 -50 111
-27 57 -56 133 -65 169 -22 95 -29 224 -16 314 6 44 207 1005 447 2135 239
1131 438 2068 441 2084 l6 27 785 -2 786 -3 49 -60 c92 -113 201 -370 246
-580 38 -178 46 -266 46 -510 0 -414 -66 -715 -229 -1050 -89 -181 -169 -297
-296 -424 -241 -241 -488 -354 -847 -386 -68 -7 -73 -8 -68 -29 3 -11 23 -133
45 -271 48 -303 46 -292 68 -299 9 -3 29 -16 44 -28 61 -52 69 -58 77 -58 5 0
11 -5 13 -11 4 -13 188 3 304 26 250 52 532 190 764 375 116 93 291 274 380
395 101 136 241 372 320 537 60 125 69 139 120 177 70 52 228 134 299 155 129
38 283 7 469 -93 36 -20 83 -57 108 -85 58 -65 129 -209 154 -311 l20 -81
-120 -572 c-66 -315 -125 -603 -130 -640 -12 -87 -12 -298 0 -387 40 -282 128
-449 400 -759 82 -94 245 -236 271 -236 7 0 583 401 602 420 5 4 -75 103 -177
220 -207 236 -237 284 -262 420 -31 166 -41 112 400 2195 224 1056 409 1928
412 1938 5 16 29 17 313 17 l308 0 267 191 266 191 0 74 c0 46 -4 74 -11 74
-15 0 -39 26 -32 34 6 6 -4561 11 -5524 6 -433 -2 -503 0 -508 12 -3 8 9 83
28 166 26 117 31 152 20 152 -7 0 -13 5 -13 10 0 6 -7 10 -16 10 -8 0 -12 5
-9 10 3 6 1 10 -5 10 -13 0 -82 49 -93 67 -6 10 -73 13 -285 13 -152 0 -283
-4 -289 -8z m4737 -1023 c0 -11 -67 -337 -248 -1208 -43 -206 -84 -377 -90
-379 -6 -2 -42 21 -79 51 -203 163 -360 240 -597 292 -89 20 -227 16 -351 -10
-38 -8 -72 -15 -75 -15 -3 0 -6 84 -6 188 -2 266 -38 496 -111 706 -33 96
-121 281 -162 341 -12 17 -21 33 -21 38 0 4 392 7 870 7 646 0 870 -3 870 -11z
m-6349 -222 c290 -82 499 -187 717 -363 107 -85 315 -292 307 -304 -4 -6 -43
-10 -88 -10 -100 0 -320 -32 -425 -61 -164 -45 -447 -171 -636 -283 -111 -67
-242 -155 -381 -259 -164 -123 -193 -134 -263 -98 -53 27 -241 191 -349 304
-189 198 -371 434 -400 519 -16 48 -10 60 60 127 206 195 462 344 715 416 156
45 232 54 432 50 176 -3 191 -5 311 -38z"/>
<path d="M308 5799 c-261 -186 -308 -224 -308 -244 0 -16 6 -25 15 -25 8 0 15
-4 15 -10 0 -5 11 -12 25 -16 14 -3 22 -10 19 -15 -3 -5 4 -9 16 -9 12 0 18
-4 15 -10 -3 -5 1 -10 10 -10 9 0 13 -4 10 -10 -4 -7 517 -10 1555 -10 l1562
0 -7 -27 c-3 -16 -14 -35 -23 -45 -9 -9 -573 -364 -1252 -788 -679 -425 -1269
-798 -1310 -828 -209 -156 -348 -355 -412 -591 -31 -112 -30 -301 1 -391 30
-87 73 -160 124 -212 72 -73 2505 -2179 2606 -2256 53 -40 101 -70 108 -68 6
3 145 100 307 216 212 151 294 215 289 225 -5 7 -73 88 -153 180 -80 91 -162
194 -182 227 -74 120 -102 236 -87 363 4 39 100 510 213 1046 114 536 252
1190 308 1454 55 264 149 707 208 985 l107 505 556 3 c485 2 557 0 557 -13 0
-8 -186 -900 -414 -1982 -239 -1133 -420 -2015 -427 -2078 -15 -142 -6 -371
20 -485 40 -173 81 -260 249 -526 91 -144 108 -166 164 -205 35 -24 72 -51 82
-61 12 -11 24 -14 30 -9 9 7 448 328 533 390 12 9 23 19 23 23 0 4 -48 85
-107 180 -135 219 -169 285 -189 377 -31 138 -19 232 105 816 236 1117 751
3563 751 3569 0 3 178 6 396 6 l396 0 316 227 c201 145 310 229 299 231 -9 2
-15 8 -12 13 4 5 -1 9 -10 9 -9 0 -13 5 -10 10 3 6 -3 10 -15 10 -12 0 -18 5
-15 10 3 6 1 10 -5 10 -15 0 -60 46 -53 54 4 3 -1501 6 -3343 6 l-3349 -1
-307 -220z m2688 -1526 c-3 -10 -44 -207 -91 -438 -199 -974 -427 -2070 -430
-2074 -3 -2 -132 106 -287 240 -156 134 -473 408 -706 608 -267 230 -425 373
-428 388 -8 30 10 74 42 104 25 23 1882 1186 1897 1188 5 1 6 -7 3 -16z"/>
<path d="M11054 5799 c-170 -122 -315 -227 -322 -233 -10 -10 -7 -15 15 -27
15 -8 34 -20 41 -26 7 -7 20 -13 28 -13 8 0 14 -4 14 -10 0 -5 7 -10 16 -10 8
0 12 -4 9 -10 -3 -5 1 -10 10 -10 9 0 13 -4 10 -10 -4 -7 655 -10 1969 -10
1087 0 1976 -3 1976 -7 0 -14 -253 -1218 -257 -1223 -3 -2 -19 4 -36 15 -127
76 -233 107 -367 109 -273 3 -555 -162 -754 -441 -21 -29 -40 -53 -42 -53 -3
0 -48 39 -101 86 -273 243 -439 333 -678 370 -288 45 -548 -24 -825 -220 -103
-73 -314 -282 -428 -425 -208 -260 -432 -652 -432 -757 0 -65 704 -1037 834
-1151 79 -69 205 -154 258 -175 82 -31 178 -27 270 12 109 45 214 118 301 209
114 119 190 249 240 406 79 250 54 473 -71 638 -45 60 -217 192 -269 206 -122
34 -187 2 -365 -182 l-137 -142 6 45 c10 76 52 211 93 297 55 117 111 196 204
289 136 135 274 195 399 176 116 -19 108 -11 352 -355 85 -121 108 -146 184
-202 47 -36 96 -68 109 -71 48 -13 77 8 267 196 222 220 358 333 472 391 68
35 94 43 156 47 l75 5 25 -50 c31 -61 57 -157 57 -212 0 -23 -79 -410 -176
-859 -96 -449 -182 -862 -189 -917 -19 -132 -19 -350 0 -461 31 -179 69 -266
243 -552 74 -122 137 -222 141 -222 3 0 39 -25 79 -55 l73 -55 287 216 c158
119 288 218 290 219 2 2 -40 74 -94 161 -139 229 -195 391 -195 573 -1 85 12
158 116 646 138 651 308 1460 550 2605 96 459 178 843 181 853 5 16 40 17 560
17 533 0 554 -1 554 -19 0 -22 -27 -150 -460 -2206 -188 -891 -351 -1667 -361
-1725 -55 -317 -24 -627 86 -854 24 -50 95 -171 157 -268 100 -156 120 -182
173 -220 33 -23 69 -50 79 -60 22 -20 -19 -46 354 226 128 94 232 174 232 180
0 5 -52 95 -116 199 -64 105 -128 214 -141 244 -36 78 -56 201 -49 305 4 56
75 414 200 1010 496 2352 561 2659 612 2906 29 145 56 268 59 273 4 5 165 9
396 9 l391 0 316 227 c201 145 310 229 299 231 -9 2 -15 8 -12 13 4 5 -1 9
-10 9 -9 0 -13 5 -10 10 3 6 -3 10 -15 10 -12 0 -18 5 -15 10 3 6 1 10 -5 10
-7 0 -25 14 -40 30 l-28 30 -3755 0 -3754 0 -309 -221z"/>
<path fill="#f04323" d="M19650 5795 c-168 -119 -311 -222 -319 -229 -11 -12 -8 -15 18 -21
17 -4 31 -11 31 -16 0 -5 7 -9 16 -9 8 0 12 -4 9 -10 -3 -5 1 -10 10 -10 9 0
13 -4 10 -10 -3 -6 4 -10 17 -10 18 0 20 -2 8 -10 -12 -8 -10 -10 8 -10 13 0
20 -4 17 -10 -4 -6 159 -11 469 -12 l475 -3 -775 -1360 c-426 -748 -806 -1423
-844 -1500 -78 -160 -150 -364 -179 -510 -70 -348 -10 -648 182 -908 91 -125
907 -939 1012 -1012 54 -37 88 -54 97 -49 21 13 512 356 523 365 5 6 -174 193
-451 472 -253 254 -477 485 -497 513 -165 230 -179 514 -41 813 19 41 235 424
479 851 244 426 644 1124 888 1550 l443 775 357 5 356 5 320 225 c229 162 313
226 298 228 -16 3 -17 6 -6 13 11 7 8 9 -9 9 -13 0 -21 4 -18 9 3 5 -5 11 -17
15 -13 3 -38 19 -55 36 l-32 30 -1247 0 -1248 0 -305 -215z"/>
<path d="M8696 5889 c-302 -42 -546 -169 -792 -414 -278 -275 -416 -603 -401
-950 7 -142 25 -221 77 -331 71 -149 164 -247 367 -388 334 -232 712 -249
1128 -51 232 111 415 274 574 510 71 106 140 251 166 350 96 364 31 681 -188
911 -156 165 -374 302 -547 344 -99 24 -283 33 -384 19z m280 -714 c40 -12 54
-22 76 -57 56 -92 73 -223 42 -328 -34 -115 -74 -181 -163 -270 -128 -128
-255 -188 -416 -196 -70 -3 -101 -1 -140 13 -44 16 -53 24 -78 74 -38 75 -53
185 -37 280 18 109 69 199 164 294 161 160 389 239 552 190z"/>
<path d="M7240 2793 c-162 -118 -296 -219 -298 -224 -2 -5 307 -458 688 -1006
744 -1074 731 -1057 920 -1199 95 -72 210 -144 228 -144 10 0 270 182 492 345
69 51 170 123 225 160 121 83 129 90 91 81 -27 -7 -28 -6 -15 10 13 15 12 16
-10 9 -16 -5 -21 -4 -17 4 4 6 0 11 -9 11 -9 0 -13 4 -10 10 3 5 -3 10 -15 10
-12 0 -18 5 -15 10 3 6 -1 10 -10 10 -9 0 -13 5 -10 10 3 6 -2 10 -12 10 -15
0 -16 2 -3 10 10 6 -28 7 -105 3 -136 -7 -235 6 -309 40 -47 22 -63 45 -699
976 l-652 954 -80 62 -81 62 -294 -214z"/>
</g>
</svg>
